USFL
nRows=147
nColumns=2
inDegrees=yes
endheader
time	soleus_r	
2.43734	 37.701185	
2.49984	 37.702489	
2.56234	 37.706446	
2.62483	 37.684153	
2.68733	 37.685514	
2.74982	 37.667547	
2.81232	 37.626088	
2.87482	 37.632847	
2.93731	 37.663586	
2.99981	 37.675616	
3.0623	 37.648089	
3.1248	 37.657793	
3.1873	 37.630744	
3.24979	 37.623631	
3.31229	 37.577677	
3.37478	 37.548730	
3.43728	 37.561333	
3.49978	 37.549870	
3.56227	 37.531953	
3.62477	 37.548535	
3.68726	 37.600183	
3.74976	 37.509627	
3.81226	 37.359354	
3.87475	 37.269983	
3.93725	 37.262600	
3.99974	 37.163140	
4.06224	 37.176829	
4.12474	 37.097889	
4.18723	 37.232240	
4.24973	 37.401609	
4.31222	 37.342053	
4.37472	 37.210222	
4.43722	 37.245654	
4.49971	 37.277039	
4.56221	 37.419981	
4.6247	 37.594478	
4.6872	 37.405062	
4.7497	 37.145993	
4.81219	 37.117837	
4.87469	 37.124916	
4.93718	 37.044351	
4.99968	 37.016872	
5.06218	 36.852184	
5.12467	 36.599610	
5.18717	 36.448530	
5.24966	 36.234017	
5.31216	 36.043786	
5.37466	 35.982749	
5.43715	 35.755435	
5.49965	 35.538657	
5.56214	 35.564235	
5.62464	 35.365011	
5.68714	 35.310981	
5.74963	 35.284584	
5.81213	 35.189327	
5.87462	 34.988728	
5.93712	 34.968254	
5.99962	 34.857404	
6.06211	 34.819540	
6.12461	 34.822911	
6.1871	 34.785124	
6.2496	 34.632358	
6.3121	 34.515269	
6.37459	 34.596873	
6.43709	 34.757912	
6.49958	 34.814252	
6.56208	 34.756525	
6.62458	 34.750929	
6.68707	 34.813817	
6.74957	 34.750361	
6.81206	 34.439130	
6.87456	 34.255085	
6.93706	 34.272798	
6.99955	 34.046124	
7.06205	 34.043982	
7.12454	 34.162001	
7.18704	 34.336361	
7.24954	 34.471831	
7.31203	 34.597809	
7.37453	 34.635819	
7.43702	 34.677603	
7.49952	 34.667971	
7.56202	 34.693334	
7.62451	 34.793606	
7.68701	 34.929193	
7.7495	 34.978432	
7.812	 34.985214	
7.8745	 35.134938	
7.93699	 35.178518	
7.99949	 35.190170	
8.06198	 35.259558	
8.12448	 35.220279	
8.18698	 35.231699	
8.24947	 35.263683	
8.31197	 35.282288	
8.37446	 35.274168	
8.43696	 35.291393	
8.49946	 35.368440	
8.56195	 35.314145	
8.62445	 35.330921	
8.68694	 35.311695	
8.74944	 35.341921	
8.81194	 35.326850	
8.87443	 35.327670	
8.93693	 35.286799	
8.99942	 35.332972	
9.06192	 35.575046	
9.12442	 35.778759	
9.18691	 36.038339	
9.24941	 36.314015	
9.3119	 36.353152	
9.3744	 36.769152	
9.4369	 37.083793	
9.49939	 37.165579	
9.56189	 37.388140	
9.62438	 37.419827	
9.68688	 37.715005	
9.74938	 37.588404	
9.81187	 37.419939	
9.87437	 37.457338	
9.93686	 37.333600	
9.99936	 37.460229	
10.0619	 37.529600	
10.1244	 37.438428	
10.1868	 37.389409	
10.2493	 37.363194	
10.3118	 37.318312	
10.3743	 37.294590	
10.4368	 37.307611	
10.4993	 37.293639	
10.5618	 37.324208	
10.6243	 37.306527	
10.6868	 37.367345	
10.7493	 37.339286	
10.8118	 37.257212	
10.8743	 37.245151	
10.9368	 37.248653	
10.9993	 37.217094	
11.0618	 37.257708	
11.1243	 37.213537	
11.1868	 37.307350	
11.2493	 37.229554	
11.3118	 37.156138	
11.3743	 37.144043	
11.4368	 37.165203	
11.4993	 37.173574	
11.5618	 37.159550	
